<?xml version="1.0" standalone="no"?>
<!DOCTYPE svg PUBLIC "-//W3C//DTD SVG 20010904//EN"
 "http://www.w3.org/TR/2001/REC-SVG-20010904/DTD/svg10.dtd">
<svg version="1.0" xmlns="http://www.w3.org/2000/svg"
 width="1000.000000pt" height="915.000000pt" viewBox="0 0 1000.000000 915.000000"
 preserveAspectRatio="xMidYMid meet">

<g transform="translate(0.000000,915.000000) scale(0.100000,-0.100000)"
fill="#000000" stroke="none">
<path d="M4635 8744 c-176 -17 -402 -53 -568 -91 l-68 -15 7 -36 c3 -21 16
-80 29 -132 36 -143 37 -156 23 -167 -7 -6 -49 -20 -93 -33 -44 -12 -109 -33
-145 -46 -36 -13 -71 -24 -77 -24 -16 0 -204 -81 -309 -132 -44 -22 -89 -38
-100 -36 -23 4 -40 38 -94 183 -23 60 -43 111 -45 113 -4 5 -90 -39 -192 -99
-148 -87 -336 -216 -475 -327 -246 -196 -607 -579 -731 -774 l-17 -27 63 -34
c34 -19 82 -45 107 -57 25 -13 62 -34 83 -47 l38 -24 -27 -47 c-15 -26 -52
-85 -83 -132 -91 -137 -139 -226 -228 -420 -45 -98 -66 -140 -72 -140 -9 0
-135 52 -215 89 -67 30 -71 31 -87 14 -22 -22 -116 -303 -158 -468 -41 -166
-78 -372 -97 -555 -18 -166 -24 -555 -10 -672 l8 -68 99 0 100 0 56 45 c30 25
59 45 64 45 6 0 53 -21 105 -47 52 -25 96 -44 99 -42 2 3 0 23 -6 45 -11 37
-7 121 7 173 l7 23 -159 -3 -159 -4 -3 70 c-5 103 15 390 39 550 22 152 77
405 115 526 27 85 28 86 114 54 25 -9 57 -20 71 -25 15 -4 42 -14 60 -22 63
-27 99 -36 104 -27 4 5 13 34 21 64 14 56 71 211 84 230 11 15 116 216 178
340 50 99 86 161 103 175 3 3 27 37 53 75 50 74 111 143 139 160 14 8 0 24
-90 97 -131 105 -165 137 -161 149 2 4 51 62 110 127 123 137 298 302 445 420
109 86 352 252 370 252 6 0 38 -55 72 -122 33 -68 69 -133 79 -146 l18 -24 53
31 c28 17 54 31 57 31 7 0 116 48 224 97 41 19 93 43 115 53 22 10 67 30 100
45 33 16 80 34 105 41 25 7 90 30 145 49 103 38 190 61 260 71 66 9 64 5 50
86 -7 40 -16 116 -20 169 -8 113 -25 100 155 123 228 29 474 39 666 27 225
-14 416 -38 430 -54 11 -11 -18 -155 -60 -308 -6 -22 -4 -27 16 -33 13 -3 38
-6 56 -6 32 0 98 -16 312 -75 52 -15 109 -30 125 -34 44 -12 166 -62 200 -83
17 -10 36 -18 43 -18 8 0 88 -36 178 -81 90 -45 170 -79 177 -76 7 2 28 42 46
88 35 87 97 199 110 199 21 0 262 -159 406 -269 155 -117 466 -408 513 -479
15 -23 13 -26 -80 -116 -53 -51 -116 -108 -141 -126 -26 -18 -44 -37 -41 -41
12 -19 137 -186 167 -223 44 -55 160 -230 205 -310 13 -22 35 -68 49 -101 14
-32 42 -89 62 -125 43 -76 86 -181 96 -232 4 -20 15 -44 25 -53 17 -16 27 -14
155 29 75 26 156 49 180 53 l44 6 35 -114 c62 -202 103 -389 132 -613 14 -110
32 -516 22 -516 -3 0 -30 -5 -59 -11 -30 -6 -103 -14 -164 -17 l-110 -7 -7
-70 c-4 -38 -11 -92 -16 -118 l-10 -49 36 7 c20 4 71 24 113 46 41 21 84 39
95 39 11 0 45 -13 75 -29 47 -25 67 -30 149 -33 l95 -3 8 100 c11 131 1 475
-17 645 -39 356 -120 675 -265 1042 l-10 28 -97 -35 c-53 -19 -102 -41 -108
-48 -13 -17 -112 -57 -138 -57 -14 0 -29 23 -59 88 -81 172 -105 218 -162 316
-32 55 -72 118 -89 140 -45 62 -118 178 -118 187 0 5 10 14 23 20 12 6 31 19
42 29 11 10 36 27 56 38 43 24 179 131 179 141 0 19 -191 242 -320 375 -218
224 -415 388 -661 549 -101 66 -360 217 -373 217 -11 0 -73 -99 -116 -185 -26
-50 -53 -91 -62 -93 -15 -3 -82 23 -205 79 -24 10 -48 19 -53 19 -6 0 -41 14
-78 31 -64 30 -224 81 -341 109 l-53 13 6 54 c3 30 19 89 35 131 16 42 32 93
35 113 l6 36 -132 27 c-285 58 -388 68 -738 71 -179 1 -343 1 -365 -1z"/>
<path d="M4695 7744 c-22 -3 -98 -14 -170 -25 -947 -151 -1758 -745 -2185
-1599 -148 -295 -235 -574 -287 -914 -23 -152 -26 -199 -25 -421 0 -137 4
-275 9 -305 l8 -55 109 -3 108 -3 -6 38 c-3 21 -9 135 -12 253 -7 238 6 391
52 617 130 642 502 1232 1025 1629 490 371 1062 564 1674 564 452 0 843 -92
1245 -291 435 -217 795 -533 1064 -938 249 -375 394 -778 447 -1250 12 -106 7
-538 -7 -593 l-6 -28 94 0 95 0 7 58 c15 138 18 385 7 532 -59 736 -362 1387
-888 1901 -443 433 -968 698 -1603 810 -106 18 -169 22 -420 24 -162 2 -313 1
-335 -1z"/>
<path d="M4966 7175 c-5 -19 -13 -25 -34 -25 -25 -1 -26 -1 -8 -15 13 -10 17
-22 14 -40 -5 -21 -2 -25 11 -19 9 4 23 7 31 7 8 0 22 -3 31 -7 13 -6 16 -2
11 20 -3 19 0 30 14 37 18 10 17 11 -6 17 -14 3 -29 16 -35 28 -13 29 -21 28
-29 -3z"/>
<path d="M5072 7089 c-15 -38 -50 -59 -98 -59 -37 0 -47 5 -73 37 -35 42 -42
26 -11 -24 11 -18 31 -35 46 -39 l27 -7 -7 -271 c-4 -149 -9 -292 -13 -318 -5
-47 -7 -48 -39 -48 -29 0 -34 -3 -34 -24 0 -13 7 -27 16 -30 13 -5 14 -9 4
-21 -10 -13 -11 -20 -1 -39 11 -19 10 -29 -4 -56 -16 -31 -16 -44 0 -82 6 -15
1 -18 -31 -18 -27 0 -35 3 -25 9 8 5 16 26 17 46 3 30 0 36 -12 31 -9 -3 -20
-6 -25 -6 -5 0 -9 -18 -9 -40 0 -22 -4 -40 -10 -40 -5 0 -10 17 -10 39 0 30
-4 40 -20 44 -17 4 -20 0 -20 -27 0 -18 5 -37 12 -44 9 -9 6 -12 -15 -12 -20
0 -27 -5 -27 -20 0 -11 7 -20 15 -20 8 0 15 -4 15 -10 0 -5 -13 -10 -30 -10
-33 0 -38 -11 -15 -30 8 -7 15 -21 15 -31 0 -10 5 -21 10 -24 6 -4 10 -73 10
-176 0 -144 -2 -169 -15 -169 -17 0 -20 16 -5 25 6 3 10 21 10 40 0 31 -3 34
-27 32 -26 -2 -28 -6 -34 -52 l-6 -50 -1 54 c-2 42 -5 52 -17 48 -8 -4 -17 -2
-20 3 -14 23 -25 7 -25 -35 0 -25 5 -45 10 -45 6 0 10 -4 10 -10 0 -5 -9 -10
-20 -10 -21 0 -29 -33 -10 -45 20 -12 10 -35 -15 -35 -30 0 -33 -20 -5 -38 11
-7 20 -23 20 -36 0 -13 7 -26 15 -30 12 -4 15 -26 15 -111 l0 -105 -65 0 c-60
0 -80 -9 -55 -25 6 -3 10 -15 10 -26 0 -16 -7 -19 -40 -19 -38 0 -40 -2 -40
-30 0 -26 5 -31 30 -36 l30 -6 0 -123 0 -122 -92 -7 c-50 -3 -304 -6 -565 -6
l-473 0 -248 -39 c-136 -22 -277 -43 -314 -46 -81 -9 -87 -22 -28 -63 l39 -27
1 -212 0 -213 -100 0 c-82 0 -100 3 -100 15 0 8 5 15 11 15 6 0 9 12 7 27 -3
26 -5 27 -173 59 -161 31 -182 33 -404 33 l-233 1 -190 72 c-171 64 -193 70
-221 61 -18 -7 -109 -39 -203 -72 l-172 -61 -227 0 c-176 0 -257 -5 -363 -20
-191 -28 -182 -25 -182 -60 0 -20 5 -30 15 -30 9 0 15 -9 15 -25 0 -16 6 -25
15 -25 13 0 15 -49 15 -380 0 -373 0 -380 -20 -380 -18 0 -20 -7 -20 -75 l0
-75 1185 0 1185 0 17 35 c16 33 16 37 0 70 -22 46 -21 78 1 98 25 22 75 21 95
-1 21 -23 21 -49 2 -95 -14 -33 -13 -40 2 -72 l17 -35 386 0 386 0 -4 -34 c-5
-41 24 -66 75 -66 32 0 44 8 81 57 26 34 184 79 310 88 56 4 102 5 102 2 0 -3
-24 -13 -52 -22 -67 -22 -154 -71 -162 -90 -7 -20 2 -42 21 -49 11 -5 1854
-10 2110 -6 19 0 35 37 24 58 -9 17 -100 67 -176 97 -39 15 -37 15 65 9 72 -4
135 -15 200 -35 93 -28 98 -32 151 -96 5 -7 27 -13 48 -13 48 0 75 27 69 70
l-5 30 389 0 388 0 17 35 c15 31 15 40 4 68 -32 73 -7 121 59 115 25 -2 38
-10 49 -30 14 -25 14 -31 -7 -72 -21 -44 -21 -47 -5 -81 l17 -35 1183 0 1183
0 0 74 c0 65 -2 74 -20 79 -20 5 -20 14 -20 380 0 366 0 375 20 380 12 3 20
14 20 26 0 12 5 21 10 21 6 0 10 13 10 30 0 35 7 33 -183 60 -105 15 -191 20
-362 20 l-224 0 -197 70 c-108 39 -201 70 -208 70 -6 0 -94 -31 -195 -70
l-183 -70 -226 0 c-209 0 -239 -2 -387 -30 -218 -41 -205 -36 -205 -65 0 -16
6 -25 16 -25 9 0 14 -6 12 -12 -3 -9 -33 -13 -104 -13 l-99 0 -3 210 -2 210
40 25 c61 38 54 56 -27 65 -38 3 -179 24 -314 46 l-245 39 -470 0 c-258 0
-513 3 -566 7 l-98 6 0 123 0 122 30 7 c25 5 30 12 30 35 0 27 -3 29 -42 32
-44 3 -49 11 -33 51 6 15 0 17 -54 17 l-61 0 0 105 c0 85 3 107 15 111 8 4 15
17 15 30 0 13 9 28 20 34 29 15 25 40 -5 40 -18 0 -25 5 -25 20 0 11 5 20 10
20 6 0 10 9 10 20 0 15 -7 20 -25 20 -14 0 -25 5 -25 10 0 6 5 10 10 10 6 0
10 17 10 39 0 35 -2 38 -25 33 -22 -4 -25 -9 -25 -48 0 -24 -4 -44 -10 -44 -5
0 -10 20 -10 44 0 39 -3 44 -25 48 -23 5 -25 2 -25 -31 0 -21 5 -42 12 -49 9
-9 7 -12 -10 -12 -22 0 -22 2 -22 169 0 103 4 172 10 176 6 3 10 14 10 24 0
10 7 24 15 31 23 19 18 30 -15 30 -34 0 -40 15 -10 23 25 6 26 27 1 34 -15 4
-18 12 -14 48 5 41 5 43 -20 38 -22 -4 -27 -11 -30 -47 l-4 -41 -1 43 c-1 23
-6 42 -11 42 -5 0 -16 3 -25 6 -13 5 -16 -1 -16 -28 0 -19 5 -39 12 -46 9 -9
5 -12 -21 -12 -28 0 -32 3 -26 18 17 42 17 54 -5 77 -22 23 -22 24 -4 54 14
23 15 33 6 44 -10 11 -9 17 3 27 8 7 15 21 15 31 0 15 -7 19 -34 19 -27 0 -35
5 -39 23 -3 12 -7 154 -8 316 l-2 293 32 14 c32 13 67 73 58 97 -3 7 -9 0 -15
-14z m-2 -749 c0 -6 -38 -10 -95 -10 -57 0 -95 4 -95 10 0 6 38 10 95 10 57 0
95 -4 95 -10z m-52 -27 c-21 -2 -57 -2 -80 0 -24 2 -7 4 37 4 44 0 63 -2 43
-4z m22 -28 c11 -13 3 -15 -65 -15 -68 0 -76 2 -65 15 8 10 30 15 65 15 35 0
57 -5 65 -15z m-22 -32 c-21 -2 -57 -2 -80 0 -24 2 -7 4 37 4 44 0 63 -2 43
-4z m-10 -30 c-15 -2 -42 -2 -60 0 -18 2 -6 4 27 4 33 0 48 -2 33 -4z m-83
-61 c-3 -4 -10 0 -15 8 -7 10 -10 11 -10 3 0 -7 -6 -13 -12 -13 -7 0 -1 11 12
23 24 23 25 23 28 5 2 -11 1 -23 -3 -26z m35 23 c0 -14 -4 -25 -10 -25 -11 0
-14 33 -3 43 11 11 13 8 13 -18z m40 -6 c0 -10 -4 -19 -10 -19 -5 0 -10 12
-10 26 0 14 4 23 10 19 6 -3 10 -15 10 -26z m24 15 c8 -22 7 -34 -3 -34 -5 0
-11 11 -13 25 -6 28 6 34 16 9z m36 -25 c0 -6 -4 -7 -10 -4 -5 3 -10 11 -10
16 0 6 5 7 10 4 6 -3 10 -11 10 -16z m-141 -79 c10 -33 10 -34 -5 -15 -16 20
-16 20 -9 -2 4 -14 2 -23 -4 -23 -6 0 -10 15 -9 33 1 17 -2 41 -7 52 -7 18 -6
18 7 5 9 -8 20 -31 27 -50z m16 15 c4 -21 3 -25 -3 -15 -15 24 -26 67 -14 55
6 -5 13 -23 17 -40z m33 -3 c2 -25 -1 -42 -7 -42 -6 0 -11 6 -11 14 0 7 -3 28
-7 46 -5 25 -3 32 8 28 8 -3 15 -22 17 -46z m31 26 c0 -13 -4 -32 -9 -43 -7
-15 -9 -10 -9 23 -1 23 4 42 9 42 6 0 10 -10 9 -22z m62 1 c-3 -8 -4 -29 -3
-46 1 -18 -3 -33 -9 -33 -6 0 -8 10 -5 23 l6 22 -11 -22 c-24 -47 -48 -15 -30
40 9 26 17 33 34 32 14 -2 20 -8 18 -16z m-181 -59 c0 -6 -32 -10 -75 -10 -43
0 -75 4 -75 10 0 6 32 10 75 10 43 0 75 -4 75 -10z m340 0 c-20 -13 -140 -13
-140 0 0 6 32 10 78 10 53 0 72 -3 62 -10z m-370 -30 c0 -5 -20 -10 -45 -10
-25 0 -45 5 -45 10 0 6 20 10 45 10 25 0 45 -4 45 -10z m340 0 c0 -5 -18 -10
-40 -10 -22 0 -40 5 -40 10 0 6 18 10 40 10 22 0 40 -4 40 -10z m-152 -7 c-32
-2 -84 -2 -115 0 -32 2 -6 3 57 3 63 0 89 -1 58 -3z m182 -63 c0 -6 -90 -10
-250 -10 -160 0 -250 4 -250 10 0 6 90 10 250 10 160 0 250 -4 250 -10z m-20
-196 c0 -137 -3 -166 -15 -170 -18 -7 -20 -40 -2 -47 6 -3 -89 -5 -213 -5
-124 0 -219 2 -212 5 14 6 16 43 2 43 -6 0 -10 64 -10 173 l0 172 225 -3 225
-3 0 -165z m-440 -194 c0 -6 -37 -10 -90 -10 -53 0 -90 4 -90 10 0 6 37 10 90
10 53 0 90 -4 90 -10z m605 0 c4 -6 -28 -10 -90 -10 -62 0 -94 4 -90 10 3 6
44 10 90 10 46 0 87 -4 90 -10z m-630 -40 c0 -11 -15 -16 -59 -18 -59 -3 -84
7 -71 28 11 18 130 9 130 -10z m605 0 c0 -18 -7 -20 -59 -20 -33 0 -63 5 -66
10 -13 21 8 30 66 30 52 0 59 -2 59 -20z m-150 -10 c0 -6 -80 -10 -220 -10
-140 0 -220 4 -220 10 0 6 80 10 220 10 140 0 220 -4 220 -10z m170 -50 c-9
-6 -163 -10 -385 -10 -222 0 -376 4 -385 10 -10 6 123 10 385 10 262 0 395 -4
385 -10z m0 -35 c0 -13 -47 -15 -382 -13 -294 2 -382 6 -386 16 -3 9 78 12
382 12 338 0 386 -2 386 -15z m-610 -170 l0 -145 -30 0 c-23 0 -30 5 -30 19 0
11 5 23 10 26 23 14 7 25 -35 25 l-45 0 0 103 c0 57 3 107 7 110 3 4 33 7 65
7 l58 0 0 -145z m428 -7 l3 -148 157 0 c95 0 151 -4 142 -9 -18 -11 -1005 -9
-1016 2 -4 4 63 7 149 7 l157 0 0 150 0 150 203 -2 202 -3 3 -147z m150 40 l3
-108 -46 0 -46 0 7 -35 c6 -34 5 -35 -25 -35 l-31 0 0 138 c0 76 3 142 7 146
4 4 34 6 68 4 l60 -3 3 -107z m-680 -135 c-27 -2 -69 -2 -95 0 -27 2 -5 3 47
3 52 0 74 -1 48 -3z m750 0 c-27 -2 -69 -2 -95 0 -27 2 -5 3 47 3 52 0 74 -1
48 -3z m-718 -28 c0 -12 -16 -15 -85 -15 -78 0 -96 5 -78 23 3 4 42 7 85 7 63
0 78 -3 78 -15z m750 0 c0 -12 -16 -15 -80 -15 -64 0 -80 3 -80 15 0 12 16 15
80 15 64 0 80 -3 80 -15z m55 -65 c-4 -6 -187 -10 -516 -10 -333 0 -509 3
-509 10 0 7 179 10 516 10 341 0 513 -3 509 -10z m-267 -37 c-130 -2 -346 -2
-480 0 -134 1 -27 2 237 2 264 0 373 -1 243 -2z m-510 -520 l2 -503 -105 0
-105 0 0 505 0 506 103 -3 102 -3 3 -502z m502 2 l0 -505 -242 2 -243 3 -3
490 c-1 270 0 496 3 503 3 9 62 12 245 12 l240 0 0 -505z m240 0 l0 -505 -110
0 -110 0 0 505 0 505 110 0 110 0 0 -505z m-970 133 c0 -15 -63 -17 -827 -20
-664 -3 -833 -1 -855 10 -16 7 -28 16 -28 20 0 4 385 7 855 7 792 0 855 -1
855 -17z m2700 10 c0 -4 -12 -13 -27 -20 -23 -11 -192 -13 -855 -10 -765 3
-828 5 -828 20 0 16 63 17 855 17 470 0 855 -3 855 -7z m-2700 -378 l0 -330
-140 0 -140 0 0 -25 c0 -14 5 -25 10 -25 6 0 10 -20 10 -45 0 -32 -4 -45 -14
-45 -11 0 -13 -33 -8 -195 l5 -195 -612 0 -611 0 0 595 0 595 750 0 750 0 0
-330z m2490 -265 l0 -595 -610 0 -610 0 0 150 c0 93 4 150 10 150 17 0 12 80
-5 86 -18 7 -22 94 -4 94 6 0 9 10 7 23 -3 21 -6 22 -145 25 l-143 3 0 329 0
330 750 0 750 0 0 -595z m-4010 555 c0 -18 -7 -20 -70 -20 -63 0 -70 2 -70 20
0 18 7 20 70 20 63 0 70 -2 70 -20z m4170 0 c0 -18 -7 -20 -64 -20 -46 0 -65
4 -69 14 -9 22 2 26 70 26 56 0 63 -2 63 -20z m-4170 -595 l0 -555 -70 0 -70
0 0 555 0 555 70 0 70 0 0 -555z m4170 0 l0 -555 -65 0 -65 0 0 555 0 555 65
0 65 0 0 -555z m-5300 265 c0 -20 7 -20 375 -20 327 0 375 -2 375 -15 0 -13
-51 -15 -401 -15 -392 0 -401 0 -406 20 -5 19 -14 20 -338 20 -288 0 -334 -2
-339 -15 -5 -13 -56 -15 -402 -13 -307 2 -398 6 -402 16 -3 9 77 12 377 12
332 0 381 2 381 15 0 13 50 15 390 15 383 0 390 0 390 -20z m7080 5 c0 -13 48
-15 375 -15 327 0 375 -2 375 -15 0 -13 -51 -15 -400 -15 -349 0 -400 2 -400
15 0 13 -44 15 -340 15 -334 0 -340 0 -340 -20 0 -20 -5 -20 -402 -18 -310 2
-402 6 -406 16 -3 9 76 12 373 12 368 0 377 0 382 20 5 20 14 20 394 20 339 0
389 -2 389 -15z m-7640 -430 l0 -396 -77 3 -78 3 -3 393 -2 392 80 0 80 0 0
-395z m310 0 l0 -395 -145 0 -145 0 0 395 0 395 145 0 145 0 0 -395z m170 0
l0 -395 -75 0 -75 0 0 395 0 395 75 0 75 0 0 -395z m6608 270 c2 -66 0 -243
-3 -392 l-7 -273 -74 0 -74 0 0 395 0 396 78 -3 77 -3 3 -120z m303 -255 c0
-206 0 -383 0 -392 -1 -16 -15 -18 -139 -18 l-139 0 -6 143 c-4 78 -7 256 -7
395 l0 253 146 -3 145 -3 0 -375z m179 -15 l0 -396 -77 3 -78 3 -3 393 -2 392
80 0 80 0 0 -395z m-7750 280 c0 -47 0 -217 0 -377 l1 -293 -378 0 -378 0 -3
378 -2 377 380 0 380 0 0 -85z m1343 76 c4 -1 7 -170 7 -376 l0 -375 -332 2
-333 3 -3 365 c-1 201 -1 369 2 375 2 6 118 9 327 8 178 -1 327 -2 332 -2z
m125 -375 l2 -376 -50 0 -50 0 0 373 c0 206 2 376 5 378 2 3 23 4 47 3 l43 -1
3 -377z m4942 -2 l0 -375 -52 3 -53 3 -3 240 c-2 132 0 299 3 372 l7 132 41 3
c23 2 45 2 50 0 4 -2 7 -172 7 -378z m680 4 l0 -378 -330 0 -330 0 0 378 0
377 330 0 330 0 0 -377z m1440 2 l0 -380 -380 0 -380 0 0 380 0 380 380 0 380
0 0 -380z m-6821 -17 c0 -234 -4 -357 -10 -337 -12 43 -44 68 -84 68 -39 0
-82 -34 -87 -68 -2 -11 -11 -22 -20 -24 -17 -3 -18 19 -18 362 l0 366 110 0
110 0 -1 -367z m4576 2 c0 -335 -1 -360 -17 -363 -12 -2 -18 3 -18 15 0 10 -7
29 -16 41 -46 65 -154 39 -154 -37 0 -12 -4 -21 -10 -21 -6 0 -10 128 -10 365
l0 366 113 -3 112 -3 0 -360z m-1925 185 c0 -21 -35 -29 -42 -10 -4 14 -862
14 -866 0 -7 -19 -42 -11 -42 10 0 20 7 20 475 20 468 0 475 0 475 -20z m-60
-95 l0 -85 -420 0 -420 0 0 85 0 85 420 0 420 0 0 -85z m-855 45 c-4 -6 -68
-10 -161 -10 -96 0 -154 4 -154 10 0 6 60 10 161 10 104 0 158 -3 154 -10z
m1210 0 c-4 -6 -70 -10 -165 -10 -95 0 -161 4 -165 10 -4 7 53 10 165 10 112
0 169 -3 165 -10z m-1207 -62 l-3 -43 -147 -3 -148 -3 0 46 0 45 151 0 150 0
-3 -42z m1182 -3 l0 -45 -155 0 -155 0 0 45 0 45 155 0 155 0 0 -45z m-684
-84 c-396 -3 -744 -3 -775 0 -31 3 293 6 719 6 l775 -1 -719 -5z m-726 -31 c0
-5 -22 -10 -50 -10 -27 0 -50 5 -50 10 0 6 23 10 50 10 28 0 50 -4 50 -10z
m295 0 c-3 -5 -26 -10 -50 -10 -24 0 -47 5 -50 10 -4 6 15 10 50 10 35 0 54
-4 50 -10z m285 0 c0 -5 -25 -10 -55 -10 -30 0 -55 5 -55 10 0 6 25 10 55 10
30 0 55 -4 55 -10z m280 0 c0 -5 -25 -10 -55 -10 -30 0 -55 5 -55 10 0 6 25
10 55 10 30 0 55 -4 55 -10z m290 0 c0 -5 -22 -10 -49 -10 -28 0 -53 5 -56 10
-4 6 15 10 49 10 31 0 56 -4 56 -10z m290 0 c0 -5 -22 -10 -50 -10 -27 0 -50
5 -50 10 0 6 23 10 50 10 28 0 50 -4 50 -10z m-1470 -195 c0 -147 2 -177 15
-181 32 -13 13 -24 -40 -24 -51 0 -69 10 -45 25 6 4 10 75 10 181 l0 174 30 0
30 0 0 -175z m300 -5 c0 -153 2 -180 15 -180 8 0 15 -4 15 -10 0 -5 -25 -10
-55 -10 -30 0 -55 5 -55 10 0 6 5 10 10 10 6 0 10 67 10 180 l0 180 30 0 30 0
0 -180z m288 -2 c1 -108 6 -178 12 -178 6 0 10 -4 10 -10 0 -5 -25 -10 -55
-10 -30 0 -55 5 -55 10 0 6 5 10 10 10 6 0 10 64 10 173 0 96 3 177 7 181 4 4
19 6 33 4 l25 -3 3 -177z m282 2 c0 -113 4 -180 10 -180 6 0 10 -4 10 -10 0
-5 -25 -10 -55 -10 -30 0 -55 5 -55 10 0 6 7 10 15 10 13 0 15 27 15 180 l0
180 30 0 30 0 0 -180z m288 -2 c1 -108 6 -178 12 -178 6 0 10 -4 10 -10 0 -5
-25 -10 -55 -10 -30 0 -55 5 -55 10 0 6 5 10 10 10 6 0 10 64 10 173 0 96 3
177 7 181 4 4 19 6 33 4 l25 -3 3 -177z m292 2 c0 -153 2 -180 15 -180 8 0 15
-4 15 -10 0 -5 -25 -10 -55 -10 -30 0 -55 5 -55 10 0 6 5 10 10 10 6 0 10 67
10 180 l0 180 30 0 30 0 0 -180z m-3098 -157 c10 -9 18 -20 18 -25 0 -4 -531
-8 -1180 -8 l-1180 0 0 25 0 25 1162 0 c1067 0 1163 -1 1180 -17z m1568 12 c0
-3 -5 -14 -11 -24 -11 -17 -41 -18 -713 -13 -386 2 -702 6 -704 7 -1 1 0 10 4
19 6 15 67 16 715 16 390 0 709 -2 709 -5z m2980 -15 c6 -11 7 -20 3 -20 -4 1
-321 -1 -704 -3 -706 -3 -729 -2 -729 32 0 8 185 11 710 11 699 0 709 0 720
-20z m2488 -2 l-3 -23 -1177 -3 c-648 -1 -1178 0 -1178 3 0 3 6 14 12 25 13
20 26 20 1181 20 l1168 0 -3 -22z m-5872 -45 c-4 -4 -46 -15 -94 -25 -75 -15
-144 -18 -503 -18 -438 0 -429 -1 -429 41 0 5 210 9 517 9 284 0 513 -3 509
-7z m3394 1 c0 -3 -5 -14 -10 -25 -10 -18 -26 -19 -428 -19 -360 0 -429 3
-504 18 -48 10 -90 21 -94 25 -4 4 227 7 514 7 287 0 522 -3 522 -6z m-4550
-24 c-11 -20 -21 -20 -1180 -20 -1163 0 -1170 0 -1170 20 0 20 7 20 1180 20
1178 0 1181 0 1170 -20z m7030 0 c0 -20 -7 -20 -1175 -20 -646 0 -1175 2
-1175 4 0 2 -3 11 -6 20 -6 15 102 16 1175 16 1174 0 1181 0 1181 -20z m-5310
-5 c0 -12 -18 -15 -107 -14 -100 1 -106 2 -78 14 17 8 64 14 108 15 62 0 77
-3 77 -15z m1160 0 c0 -13 -70 -15 -570 -15 -500 0 -570 2 -570 15 0 13 70 15
570 15 500 0 570 -2 570 -15z m70 0 c0 -9 -9 -15 -25 -15 -16 0 -25 6 -25 15
0 9 9 15 25 15 16 0 25 -6 25 -15z m190 0 c23 -13 17 -14 -72 -15 -81 0 -98 3
-98 15 0 20 134 20 170 0z m-2120 -55 c8 -15 6 -21 -9 -30 -47 -25 -109 2 -81
35 19 22 77 19 90 -5z m656 4 c-2 -13 -22 -16 -130 -17 -70 -1 -130 1 -132 5
-11 18 41 27 148 28 101 0 116 -2 114 -16z m1284 2 c0 -8 -14 -16 -32 -19 -18
-3 -303 -5 -633 -4 -562 2 -600 3 -603 20 -3 16 32 17 632 17 536 0 636 -2
636 -14z m40 -1 c0 -8 -4 -15 -10 -15 -5 0 -10 7 -10 15 0 8 5 15 10 15 6 0
10 -7 10 -15z m246 0 c17 -13 7 -14 -98 -15 -65 0 -121 0 -125 -1 -5 0 -9 7
-11 15 -3 14 12 16 105 16 81 0 114 -4 129 -15z m494 5 c12 -7 12 -13 4 -27
-13 -21 -36 -27 -70 -19 -26 7 -34 40 -11 49 21 9 61 7 77 -3z m-2382 -42 c17
-17 -4 -38 -39 -38 -33 0 -45 15 -29 35 15 18 52 19 68 3z m2021 3 c8 -5 11
-16 8 -25 -8 -20 -60 -22 -76 -3 -22 27 33 50 68 28z m-1794 -31 c0 -25 -1
-25 -102 -28 l-103 -3 0 31 0 31 103 -3 c101 -3 102 -3 102 -28z m1443 4 c3
-19 -3 -21 -80 -27 -46 -4 -366 -7 -711 -7 -549 0 -628 2 -633 15 -4 8 -4 22
0 30 5 13 90 15 713 13 l708 -3 3 -21z m52 -5 c0 -10 -7 -19 -15 -19 -15 0
-21 31 -9 43 11 10 24 -3 24 -24z m210 1 c0 -29 -3 -32 -22 -26 -13 3 -56 6
-95 6 -64 0 -73 2 -73 18 0 10 2 21 5 23 2 3 45 6 95 8 l90 2 0 -31z"/>
<path d="M5020 6100 c-7 -17 -10 -33 -8 -36 3 -3 11 9 17 27 14 42 7 49 -9 9z"/>
<path d="M4800 5830 l0 -61 43 3 42 3 0 55 0 55 -42 3 -43 3 0 -61z"/>
<path d="M4930 5830 l0 -61 43 3 42 3 0 55 0 55 -42 3 -43 3 0 -61z"/>
<path d="M5052 5833 l3 -58 43 -3 42 -3 0 60 0 61 -45 0 -46 0 3 -57z"/>
<path d="M4800 5661 l0 -61 45 0 46 0 -3 58 -3 57 -42 3 -43 3 0 -60z"/>
<path d="M4930 5661 l0 -61 45 0 46 0 -3 58 -3 57 -42 3 -43 3 0 -60z"/>
<path d="M5057 5713 c-4 -3 -7 -30 -7 -60 l0 -53 45 0 45 0 0 60 0 60 -38 0
c-21 0 -42 -3 -45 -7z"/>
<path d="M4800 5330 l0 -60 45 0 45 0 0 60 0 60 -45 0 -45 0 0 -60z"/>
<path d="M4930 5330 l0 -60 45 0 45 0 0 60 0 60 -45 0 -45 0 0 -60z"/>
<path d="M5060 5330 l0 -61 43 3 42 3 0 55 0 55 -42 3 -43 3 0 -61z"/>
<path d="M4800 5175 l0 -55 45 0 45 0 0 55 0 55 -45 0 -45 0 0 -55z"/>
<path d="M4930 5175 l0 -55 45 0 45 0 0 55 0 55 -45 0 -45 0 0 -55z"/>
<path d="M5060 5175 l0 -55 45 0 45 0 0 55 0 55 -45 0 -45 0 0 -55z"/>
<path d="M4560 4925 l0 -65 50 0 50 0 0 65 0 65 -50 0 -50 0 0 -65z"/>
<path d="M4560 4735 l0 -65 50 0 50 0 0 65 0 65 -50 0 -50 0 0 -65z"/>
<path d="M4560 4535 l0 -65 50 0 50 0 0 65 0 65 -50 0 -50 0 0 -65z"/>
<path d="M4560 4335 l0 -65 50 0 50 0 0 65 0 65 -50 0 -50 0 0 -65z"/>
<path d="M4560 4136 c0 -71 6 -76 73 -67 27 3 28 4 25 65 l-3 61 -47 3 -48 3
0 -65z"/>
<path d="M4760 4925 l0 -65 50 0 50 0 0 65 0 65 -50 0 -50 0 0 -65z"/>
<path d="M4916 4953 c-3 -21 -4 -49 -2 -63 2 -23 7 -25 52 -25 l49 0 3 63 3
62 -50 0 -49 0 -6 -37z"/>
<path d="M5070 4924 l0 -65 53 3 52 3 2 40 c3 79 -2 85 -57 85 l-50 0 0 -66z"/>
<path d="M4760 4735 l0 -65 50 0 50 0 0 65 0 65 -50 0 -50 0 0 -65z"/>
<path d="M4917 4783 c-3 -10 -5 -38 -4 -63 l2 -45 50 0 50 0 0 60 0 60 -47 3
c-38 2 -47 0 -51 -15z"/>
<path d="M5070 4736 l0 -66 49 0 c55 0 57 2 56 75 l0 50 -52 3 -53 3 0 -65z"/>
<path d="M4760 4535 l0 -65 50 0 50 0 0 65 0 65 -50 0 -50 0 0 -65z"/>
<path d="M4914 4586 c-3 -8 -4 -36 -2 -63 l3 -48 53 -3 53 -3 -3 63 -3 63 -48
3 c-35 2 -49 -1 -53 -12z"/>
<path d="M5070 4535 l0 -66 53 3 52 3 -1 60 -1 60 -51 3 -52 3 0 -66z"/>
<path d="M4760 4335 l0 -65 50 0 50 0 0 65 0 65 -50 0 -50 0 0 -65z"/>
<path d="M4919 4398 c-5 -11 -6 -97 -2 -111 4 -15 13 -17 51 -15 l47 3 3 63 3
62 -51 0 c-27 0 -50 -1 -51 -2z"/>
<path d="M5070 4336 l0 -66 50 0 c55 0 51 -5 54 80 l1 45 -52 3 -53 3 0 -65z"/>
<path d="M4767 4193 c-13 -12 -8 -121 6 -125 6 -3 29 -3 50 0 l37 4 0 64 0 64
-43 0 c-24 0 -47 -3 -50 -7z"/>
<path d="M4917 4194 c-12 -13 -8 -111 6 -121 10 -8 37 -9 90 -4 4 1 7 29 5 64
l-3 62 -45 3 c-25 2 -49 0 -53 -4z"/>
<path d="M5074 4187 c-3 -8 -4 -39 -2 -68 l3 -54 40 2 c61 4 62 6 61 70 l-1
58 -48 3 c-34 2 -49 -1 -53 -11z"/>
<path d="M5290 4925 l0 -65 50 0 50 0 0 65 0 65 -50 0 -50 0 0 -65z"/>
<path d="M5290 4735 l0 -65 50 0 50 0 0 65 0 65 -50 0 -50 0 0 -65z"/>
<path d="M5290 4535 l0 -65 50 0 50 0 0 65 0 65 -50 0 -50 0 0 -65z"/>
<path d="M5290 4335 l0 -65 50 0 50 0 0 65 0 65 -50 0 -50 0 0 -65z"/>
<path d="M5297 4193 c-4 -3 -7 -33 -7 -65 0 -63 -5 -58 68 -61 27 -1 27 0 30
66 l3 67 -44 0 c-24 0 -47 -3 -50 -7z"/>
<path d="M3035 4566 c-11 -17 -15 -42 -13 -83 l3 -58 48 -3 47 -3 0 63 c0 97
-47 143 -85 84z"/>
<path d="M3187 4572 c-12 -14 -17 -37 -17 -86 l0 -67 48 3 47 3 1 57 c1 31 -4
67 -10 80 -15 29 -47 34 -69 10z"/>
<path d="M3336 4574 c-12 -11 -16 -35 -16 -85 l0 -69 45 0 45 0 0 69 c0 71
-14 101 -45 101 -7 0 -21 -7 -29 -16z"/>
<path d="M3476 4568 c-11 -15 -16 -45 -16 -85 l0 -63 45 0 45 0 0 66 c0 36 -5
74 -10 85 -14 26 -45 24 -64 -3z"/>
<path d="M3620 4571 c-5 -11 -10 -49 -10 -85 l0 -66 45 0 45 0 0 69 c0 50 -4
74 -16 85 -21 22 -51 20 -64 -3z"/>
<path d="M3769 4573 c-9 -10 -14 -41 -14 -82 l0 -66 48 -3 47 -3 0 63 c0 69
-18 108 -49 108 -10 0 -25 -7 -32 -17z"/>
<path d="M3916 4568 c-11 -15 -16 -44 -16 -86 l0 -63 48 3 47 3 3 55 c1 30 -4
66 -11 80 -17 33 -51 37 -71 8z"/>
<path d="M4067 4572 c-12 -13 -17 -37 -17 -85 l0 -67 45 0 45 0 0 66 c0 36 -5
74 -10 85 -13 24 -42 25 -63 1z"/>
<path d="M4206 4568 c-11 -15 -16 -44 -16 -86 l0 -63 48 3 47 3 3 55 c1 30 -4
66 -11 80 -17 33 -51 37 -71 8z"/>
<path d="M4356 4568 c-11 -15 -16 -45 -16 -86 l0 -63 48 3 47 3 3 58 c5 92
-43 141 -82 85z"/>
<path d="M3024 4346 c-3 -7 -4 -38 -2 -67 l3 -54 45 0 45 0 3 68 3 67 -46 0
c-29 0 -47 -5 -51 -14z"/>
<path d="M3180 4289 l0 -70 43 3 42 3 3 68 3 67 -46 0 -45 0 0 -71z"/>
<path d="M3322 4293 l3 -68 40 0 40 0 3 68 3 67 -46 0 -46 0 3 -67z"/>
<path d="M3470 4289 l0 -70 43 3 42 3 3 68 3 67 -46 0 -45 0 0 -71z"/>
<path d="M3612 4293 l3 -68 45 0 45 0 3 68 3 67 -51 0 -51 0 3 -67z"/>
<path d="M3760 4290 l0 -70 45 0 45 0 0 70 0 70 -45 0 -45 0 0 -70z"/>
<path d="M3910 4289 l0 -70 43 3 42 3 3 68 3 67 -46 0 -45 0 0 -71z"/>
<path d="M4052 4293 l3 -68 40 0 40 0 3 68 3 67 -46 0 -46 0 3 -67z"/>
<path d="M4200 4289 l0 -70 43 3 42 3 3 68 3 67 -46 0 -45 0 0 -71z"/>
<path d="M4342 4293 l3 -68 45 0 45 0 3 68 3 67 -51 0 -51 0 3 -67z"/>
<path d="M3027 4153 c-4 -3 -7 -33 -7 -65 l0 -58 50 0 50 0 0 65 0 65 -43 0
c-24 0 -47 -3 -50 -7z"/>
<path d="M3180 4095 l0 -65 45 0 45 0 0 65 0 65 -45 0 -45 0 0 -65z"/>
<path d="M3320 4095 l0 -65 45 0 45 0 0 65 0 65 -45 0 -45 0 0 -65z"/>
<path d="M3470 4095 l0 -65 45 0 45 0 0 65 0 65 -45 0 -45 0 0 -65z"/>
<path d="M3610 4096 l0 -66 50 0 51 0 -3 63 -3 62 -47 3 -48 3 0 -65z"/>
<path d="M3760 4095 l0 -65 45 0 45 0 0 65 0 65 -45 0 -45 0 0 -65z"/>
<path d="M3910 4095 l0 -65 45 0 45 0 0 65 0 65 -45 0 -45 0 0 -65z"/>
<path d="M4050 4095 l0 -65 45 0 45 0 0 65 0 65 -45 0 -45 0 0 -65z"/>
<path d="M4200 4095 l0 -65 45 0 45 0 0 65 0 65 -45 0 -45 0 0 -65z"/>
<path d="M4347 4154 c-4 -4 -7 -34 -7 -66 l0 -58 50 0 51 0 -3 63 -3 62 -40 3
c-23 2 -44 0 -48 -4z"/>
<path d="M3020 3905 l0 -65 50 0 50 0 0 65 0 65 -50 0 -50 0 0 -65z"/>
<path d="M3180 3905 l0 -65 45 0 45 0 0 65 0 65 -45 0 -45 0 0 -65z"/>
<path d="M3320 3905 l0 -65 45 0 45 0 0 65 0 65 -45 0 -45 0 0 -65z"/>
<path d="M3470 3905 l0 -65 45 0 45 0 0 65 0 65 -45 0 -45 0 0 -65z"/>
<path d="M3610 3905 l0 -65 50 0 50 0 0 65 0 65 -50 0 -50 0 0 -65z"/>
<path d="M3760 3905 l0 -65 45 0 45 0 0 65 0 65 -45 0 -45 0 0 -65z"/>
<path d="M3910 3905 l0 -65 45 0 45 0 0 65 0 65 -45 0 -45 0 0 -65z"/>
<path d="M4050 3905 l0 -65 45 0 45 0 0 65 0 65 -45 0 -45 0 0 -65z"/>
<path d="M3020 3715 l0 -65 50 0 50 0 0 65 0 65 -50 0 -50 0 0 -65z"/>
<path d="M3180 3715 l0 -65 45 0 45 0 0 65 0 65 -45 0 -45 0 0 -65z"/>
<path d="M3320 3715 l0 -65 45 0 45 0 0 65 0 65 -45 0 -45 0 0 -65z"/>
<path d="M3470 3715 l0 -65 45 0 45 0 0 65 0 65 -45 0 -45 0 0 -65z"/>
<path d="M3610 3715 l0 -65 50 0 50 0 0 65 0 65 -50 0 -50 0 0 -65z"/>
<path d="M3760 3715 l0 -65 45 0 45 0 0 65 0 65 -45 0 -45 0 0 -65z"/>
<path d="M3910 3715 l0 -65 45 0 45 0 0 65 0 65 -45 0 -45 0 0 -65z"/>
<path d="M4050 3715 l0 -65 45 0 45 0 0 65 0 65 -45 0 -45 0 0 -65z"/>
<path d="M3024 3586 c-3 -7 -4 -38 -2 -67 l3 -54 48 -3 47 -3 0 70 0 71 -45 0
c-29 0 -48 -5 -51 -14z"/>
<path d="M3180 3530 l0 -70 45 0 45 0 0 70 0 70 -45 0 -45 0 0 -70z"/>
<path d="M3320 3530 l0 -70 45 0 45 0 0 70 0 70 -45 0 -45 0 0 -70z"/>
<path d="M3470 3530 l0 -70 45 0 45 0 0 70 0 70 -45 0 -45 0 0 -70z"/>
<path d="M3612 3533 l3 -68 45 0 45 0 0 65 0 65 -48 3 -48 3 3 -68z"/>
<path d="M3760 3530 l0 -70 45 0 45 0 0 70 0 70 -45 0 -45 0 0 -70z"/>
<path d="M3910 3530 l0 -70 45 0 45 0 0 70 0 70 -45 0 -45 0 0 -70z"/>
<path d="M4050 3530 l0 -70 45 0 45 0 0 70 0 70 -45 0 -45 0 0 -70z"/>
<path d="M5536 4574 c-12 -11 -16 -35 -16 -85 l0 -69 45 0 45 0 0 66 c0 36 -5
74 -10 85 -13 23 -43 25 -64 3z"/>
<path d="M5687 4572 c-12 -13 -17 -37 -17 -85 l0 -67 45 0 45 0 0 66 c0 36 -5
74 -10 85 -13 24 -42 25 -63 1z"/>
<path d="M5827 4572 c-12 -13 -17 -37 -17 -85 l0 -67 45 0 45 0 0 66 c0 36 -5
74 -10 85 -13 24 -42 25 -63 1z"/>
<path d="M5970 4571 c-5 -11 -10 -49 -10 -85 l0 -66 45 0 45 0 0 63 c0 68 -18
107 -50 107 -11 0 -24 -9 -30 -19z"/>
<path d="M6115 4566 c-11 -17 -15 -42 -13 -83 l3 -58 48 -3 47 -3 0 63 c0 97
-47 143 -85 84z"/>
<path d="M6267 4572 c-12 -13 -17 -37 -17 -85 l0 -67 45 0 45 0 0 66 c0 36 -5
74 -10 85 -13 24 -42 25 -63 1z"/>
<path d="M6410 4571 c-5 -11 -10 -49 -10 -85 l0 -66 45 0 45 0 0 68 c0 54 -4
72 -18 85 -25 22 -49 21 -62 -2z"/>
<path d="M6557 4572 c-12 -13 -17 -37 -17 -85 l0 -67 45 0 45 0 0 66 c0 36 -5
74 -10 85 -13 24 -42 25 -63 1z"/>
<path d="M6700 4571 c-5 -11 -10 -49 -10 -85 l0 -66 45 0 45 0 0 68 c0 54 -4
72 -18 85 -25 22 -49 21 -62 -2z"/>
<path d="M6846 4568 c-11 -15 -16 -45 -16 -86 l0 -63 48 3 47 3 3 58 c5 92
-43 141 -82 85z"/>
<path d="M5520 4290 l0 -70 45 0 45 0 0 70 0 70 -45 0 -45 0 0 -70z"/>
<path d="M5670 4289 l0 -70 43 3 42 3 3 68 3 67 -46 0 -45 0 0 -71z"/>
<path d="M5812 4293 l3 -68 40 0 40 0 3 68 3 67 -46 0 -46 0 3 -67z"/>
<path d="M5952 4293 l3 -68 43 -3 42 -3 0 70 0 71 -45 0 -46 0 3 -67z"/>
<path d="M6102 4293 l3 -68 43 -3 42 -3 0 70 0 71 -45 0 -46 0 3 -67z"/>
<path d="M6250 4289 l0 -70 43 3 42 3 3 68 3 67 -46 0 -45 0 0 -71z"/>
<path d="M6392 4293 l3 -68 45 0 45 0 0 65 0 65 -48 3 -48 3 3 -68z"/>
<path d="M6542 4293 l3 -68 43 -3 42 -3 0 70 0 71 -45 0 -46 0 3 -67z"/>
<path d="M6682 4293 l3 -68 45 0 45 0 3 68 3 67 -51 0 -51 0 3 -67z"/>
<path d="M6832 4293 l3 -68 45 0 45 0 3 68 3 67 -51 0 -51 0 3 -67z"/>
<path d="M5520 4095 l0 -65 45 0 45 0 0 65 0 65 -45 0 -45 0 0 -65z"/>
<path d="M5670 4095 l0 -65 45 0 45 0 0 65 0 65 -45 0 -45 0 0 -65z"/>
<path d="M5810 4095 l0 -65 45 0 45 0 0 65 0 65 -45 0 -45 0 0 -65z"/>
<path d="M5957 4153 c-4 -3 -7 -33 -7 -65 l0 -58 45 0 45 0 0 65 0 65 -38 0
c-21 0 -42 -3 -45 -7z"/>
<path d="M6100 4095 l0 -65 45 0 45 0 0 65 0 65 -45 0 -45 0 0 -65z"/>
<path d="M6250 4095 l0 -65 45 0 45 0 0 65 0 65 -45 0 -45 0 0 -65z"/>
<path d="M6390 4096 l0 -66 50 0 51 0 -3 63 -3 62 -47 3 -48 3 0 -65z"/>
<path d="M6540 4095 l0 -65 45 0 45 0 0 65 0 65 -45 0 -45 0 0 -65z"/>
<path d="M6687 4154 c-4 -4 -7 -34 -7 -66 l0 -58 50 0 51 0 -3 63 -3 62 -40 3
c-23 2 -44 0 -48 -4z"/>
<path d="M6837 4154 c-4 -4 -7 -34 -7 -66 l0 -58 50 0 51 0 -3 63 -3 62 -40 3
c-23 2 -44 0 -48 -4z"/>
<path d="M5810 3905 l0 -65 45 0 45 0 0 65 0 65 -45 0 -45 0 0 -65z"/>
<path d="M5950 3905 l0 -65 45 0 45 0 0 65 0 65 -45 0 -45 0 0 -65z"/>
<path d="M6100 3905 l0 -65 45 0 45 0 0 65 0 65 -45 0 -45 0 0 -65z"/>
<path d="M6250 3905 l0 -65 45 0 45 0 0 65 0 65 -45 0 -45 0 0 -65z"/>
<path d="M6390 3905 l0 -65 50 0 50 0 0 65 0 65 -50 0 -50 0 0 -65z"/>
<path d="M6540 3905 l0 -65 45 0 45 0 0 65 0 65 -45 0 -45 0 0 -65z"/>
<path d="M6680 3905 l0 -65 50 0 50 0 0 65 0 65 -50 0 -50 0 0 -65z"/>
<path d="M6830 3905 l0 -65 50 0 50 0 0 65 0 65 -50 0 -50 0 0 -65z"/>
<path d="M5810 3715 l0 -65 45 0 45 0 0 65 0 65 -45 0 -45 0 0 -65z"/>
<path d="M5950 3715 l0 -65 45 0 45 0 0 65 0 65 -45 0 -45 0 0 -65z"/>
<path d="M6100 3715 l0 -65 45 0 45 0 0 65 0 65 -45 0 -45 0 0 -65z"/>
<path d="M6250 3715 l0 -65 45 0 45 0 0 65 0 65 -45 0 -45 0 0 -65z"/>
<path d="M6390 3715 l0 -65 50 0 50 0 0 65 0 65 -50 0 -50 0 0 -65z"/>
<path d="M6540 3715 l0 -65 45 0 45 0 0 65 0 65 -45 0 -45 0 0 -65z"/>
<path d="M6680 3715 l0 -65 50 0 50 0 0 65 0 65 -50 0 -50 0 0 -65z"/>
<path d="M6830 3715 l0 -65 50 0 50 0 0 65 0 65 -50 0 -50 0 0 -65z"/>
<path d="M5810 3530 l0 -70 45 0 45 0 0 70 0 70 -45 0 -45 0 0 -70z"/>
<path d="M5950 3530 l0 -70 45 0 45 0 0 70 0 70 -45 0 -45 0 0 -70z"/>
<path d="M6100 3530 l0 -70 45 0 45 0 0 70 0 70 -45 0 -45 0 0 -70z"/>
<path d="M6250 3530 l0 -70 45 0 45 0 0 70 0 70 -45 0 -45 0 0 -70z"/>
<path d="M6390 3530 l0 -71 48 3 47 3 0 65 0 65 -47 3 -48 3 0 -71z"/>
<path d="M6540 3530 l0 -70 45 0 45 0 0 70 0 70 -45 0 -45 0 0 -70z"/>
<path d="M6682 3533 l3 -68 45 0 45 0 0 65 0 65 -48 3 -48 3 3 -68z"/>
<path d="M6830 3529 l0 -70 48 3 47 3 3 68 3 67 -51 0 -50 0 0 -71z"/>
<path d="M1147 4174 c-4 -4 -7 -36 -7 -71 l0 -63 45 0 46 0 -3 67 -3 67 -35 4
c-20 1 -39 0 -43 -4z"/>
<path d="M1140 3906 l0 -66 50 0 51 0 -3 63 -3 62 -47 3 -48 3 0 -65z"/>
<path d="M1150 3720 l0 -70 45 0 45 0 0 70 0 70 -45 0 -45 0 0 -70z"/>
<path d="M1150 3530 l0 -70 45 0 45 0 0 70 0 70 -45 0 -45 0 0 -70z"/>
<path d="M1325 4172 c-3 -3 -5 -34 -5 -69 l0 -63 45 0 46 0 -3 68 -3 67 -37 1
c-21 0 -40 -2 -43 -4z"/>
<path d="M1468 4173 c-15 -4 -18 -16 -18 -69 l0 -65 48 3 47 3 3 63 c2 34 -1
62 -5 63 -4 0 -19 2 -33 3 -14 2 -33 1 -42 -1z"/>
<path d="M1320 3905 l0 -65 50 0 50 0 0 65 0 65 -50 0 -50 0 0 -65z"/>
<path d="M1460 3905 l0 -65 45 0 45 0 0 65 0 65 -45 0 -45 0 0 -65z"/>
<path d="M1330 3720 l0 -70 45 0 45 0 0 70 0 70 -45 0 -45 0 0 -70z"/>
<path d="M1460 3721 l0 -71 45 0 c51 0 57 10 52 90 l-2 45 -47 3 -48 3 0 -70z"/>
<path d="M1330 3530 l0 -70 45 0 45 0 0 70 0 70 -45 0 -45 0 0 -70z"/>
<path d="M1460 3530 l0 -71 48 3 47 3 0 65 0 65 -47 3 -48 3 0 -71z"/>
<path d="M1631 4166 c-7 -8 -10 -37 -9 -67 l3 -54 48 -3 48 -3 -3 68 -3 68
-36 2 c-22 2 -41 -2 -48 -11z"/>
<path d="M1630 3910 l0 -70 45 0 45 0 0 70 0 70 -45 0 -45 0 0 -70z"/>
<path d="M1637 3774 c-4 -4 -7 -36 -7 -71 l0 -63 50 0 51 0 -3 68 -3 67 -40 3
c-23 2 -44 0 -48 -4z"/>
<path d="M1632 3533 l3 -68 45 0 45 0 3 68 3 67 -51 0 -51 0 3 -67z"/>
<path d="M8240 4108 l0 -68 45 0 46 0 -3 67 -3 67 -42 1 -43 1 0 -68z"/>
<path d="M8237 3974 c-4 -4 -7 -36 -7 -71 l0 -64 48 3 47 3 0 65 0 65 -40 3
c-23 2 -44 0 -48 -4z"/>
<path d="M8230 3710 l0 -70 45 0 45 0 0 70 0 70 -45 0 -45 0 0 -70z"/>
<path d="M8230 3530 l0 -70 45 0 45 0 0 70 0 70 -45 0 -45 0 0 -70z"/>
<path d="M8414 4171 c-2 -2 -4 -33 -4 -68 l0 -63 45 0 46 0 -3 67 -3 67 -38 1
c-21 0 -40 -1 -43 -4z"/>
<path d="M8558 4173 c-15 -4 -18 -16 -18 -69 l0 -64 50 0 50 0 0 65 c0 57 -2
65 -19 65 -11 0 -25 2 -33 4 -7 2 -21 2 -30 -1z"/>
<path d="M8400 3905 l0 -65 50 0 50 0 0 65 0 65 -50 0 -50 0 0 -65z"/>
<path d="M8540 3905 l0 -65 45 0 45 0 0 65 0 65 -45 0 -45 0 0 -65z"/>
<path d="M8400 3720 l0 -70 45 0 45 0 0 70 0 70 -45 0 -45 0 0 -70z"/>
<path d="M8534 3776 c-3 -8 -4 -39 -2 -68 l3 -53 48 -3 47 -3 0 70 0 71 -45 0
c-31 0 -47 -5 -51 -14z"/>
<path d="M8400 3530 l0 -70 45 0 45 0 0 70 0 70 -45 0 -45 0 0 -70z"/>
<path d="M8534 3586 c-3 -7 -4 -38 -2 -67 l3 -54 48 -3 47 -3 0 70 0 71 -45 0
c-29 0 -48 -5 -51 -14z"/>
<path d="M8743 4172 c-21 -3 -23 -9 -23 -68 l0 -64 50 0 51 0 -3 68 c-3 73 -5
74 -75 64z"/>
<path d="M8720 3905 l0 -65 45 0 45 0 0 65 0 65 -45 0 -45 0 0 -65z"/>
<path d="M8720 3730 c0 -33 -1 -63 -2 -67 -2 -5 18 -9 45 -11 l47 -3 0 70 0
71 -45 0 -45 0 0 -60z"/>
<path d="M8719 3596 c-2 -2 -2 -34 -1 -70 l4 -66 44 0 44 0 0 70 0 70 -43 0
c-24 0 -46 -2 -48 -4z"/>
<path d="M454 4171 c-2 -2 -4 -33 -4 -68 l0 -63 50 0 51 0 -3 68 -3 67 -43 0
c-24 0 -46 -2 -48 -4z"/>
<path d="M580 4105 l0 -65 45 0 45 0 0 65 0 65 -45 0 -45 0 0 -65z"/>
<path d="M720 4105 l0 -65 45 0 45 0 0 65 0 65 -45 0 -45 0 0 -65z"/>
<path d="M842 4108 l3 -63 48 -3 47 -3 0 65 0 66 -50 0 -51 0 3 -62z"/>
<path d="M970 4105 l0 -65 45 0 45 0 0 65 0 65 -45 0 -45 0 0 -65z"/>
<path d="M450 3905 l0 -65 50 0 50 0 0 65 0 65 -50 0 -50 0 0 -65z"/>
<path d="M580 3905 l0 -65 45 0 45 0 0 65 0 65 -45 0 -45 0 0 -65z"/>
<path d="M720 3905 l0 -65 45 0 45 0 0 65 0 65 -45 0 -45 0 0 -65z"/>
<path d="M840 3905 l0 -65 50 0 50 0 0 65 0 65 -50 0 -50 0 0 -65z"/>
<path d="M970 3905 l0 -65 45 0 45 0 0 65 0 65 -45 0 -45 0 0 -65z"/>
<path d="M452 3723 l3 -68 45 0 45 0 3 68 3 67 -51 0 -51 0 3 -67z"/>
<path d="M580 3720 l0 -70 45 0 45 0 0 70 0 70 -45 0 -45 0 0 -70z"/>
<path d="M720 3720 l0 -70 45 0 45 0 0 70 0 70 -45 0 -45 0 0 -70z"/>
<path d="M844 3776 c-3 -7 -4 -38 -2 -67 l3 -54 48 -3 47 -3 0 70 0 71 -45 0
c-29 0 -48 -5 -51 -14z"/>
<path d="M970 3720 l0 -70 45 0 45 0 0 70 0 70 -45 0 -45 0 0 -70z"/>
<path d="M450 3535 l0 -65 50 0 50 0 0 65 0 65 -50 0 -50 0 0 -65z"/>
<path d="M580 3535 l0 -65 45 0 45 0 0 65 0 65 -45 0 -45 0 0 -65z"/>
<path d="M720 3535 l0 -65 45 0 45 0 0 65 0 65 -45 0 -45 0 0 -65z"/>
<path d="M840 3535 l0 -65 50 0 50 0 0 65 0 65 -50 0 -50 0 0 -65z"/>
<path d="M970 3535 l0 -65 45 0 45 0 0 65 0 65 -45 0 -45 0 0 -65z"/>
<path d="M1790 4105 l0 -65 45 0 45 0 0 65 0 65 -45 0 -45 0 0 -65z"/>
<path d="M1917 4163 c-2 -5 -3 -33 -2 -63 l1 -55 47 -3 47 -3 0 65 0 66 -44 0
c-25 0 -46 -3 -49 -7z"/>
<path d="M2057 4163 c-2 -5 -4 -34 -5 -65 l-1 -58 50 0 49 0 0 65 0 65 -44 0
c-25 0 -47 -3 -49 -7z"/>
<path d="M2180 4105 c0 -51 3 -65 15 -66 75 -5 70 -9 73 64 l3 67 -46 0 -45 0
0 -65z"/>
<path d="M2310 4105 l0 -65 45 0 45 0 0 65 0 65 -45 0 -45 0 0 -65z"/>
<path d="M1790 3900 l0 -70 45 0 45 0 0 70 0 70 -45 0 -45 0 0 -70z"/>
<path d="M1920 3966 c-3 -2 -3 -34 -2 -71 l4 -66 41 3 42 3 0 65 0 65 -40 3
c-23 2 -43 1 -45 -2z"/>
<path d="M2054 3957 c-3 -8 -4 -39 -2 -68 l3 -54 45 0 45 0 0 65 0 65 -43 3
c-29 2 -44 -1 -48 -11z"/>
<path d="M2180 3900 l0 -70 45 0 45 0 0 70 0 70 -45 0 -45 0 0 -70z"/>
<path d="M2310 3900 l0 -70 45 0 45 0 0 70 0 70 -45 0 -45 0 0 -70z"/>
<path d="M1790 3715 l0 -65 45 0 45 0 0 65 0 65 -45 0 -45 0 0 -65z"/>
<path d="M1918 3773 c-2 -5 -3 -33 -3 -63 l0 -55 48 -3 47 -3 0 65 0 66 -44 0
c-25 0 -46 -3 -48 -7z"/>
<path d="M2055 3768 c-2 -7 -3 -35 -2 -63 l2 -50 48 -3 47 -3 0 65 0 66 -45 0
c-28 0 -47 -5 -50 -12z"/>
<path d="M2180 3715 l0 -65 45 0 45 0 0 65 0 65 -45 0 -45 0 0 -65z"/>
<path d="M2310 3715 l0 -65 45 0 45 0 0 65 0 65 -45 0 -45 0 0 -65z"/>
<path d="M1790 3530 l0 -70 45 0 45 0 0 70 0 70 -45 0 -45 0 0 -70z"/>
<path d="M1919 3593 c0 -5 -1 -35 -2 -68 l-1 -60 47 -3 47 -3 0 70 0 71 -45 0
c-25 0 -45 -3 -46 -7z"/>
<path d="M2057 3593 c-3 -5 -4 -35 -3 -68 l1 -60 45 0 45 0 3 68 3 67 -45 0
c-25 0 -47 -3 -49 -7z"/>
<path d="M2180 3530 l0 -70 45 0 45 0 0 70 0 70 -45 0 -45 0 0 -70z"/>
<path d="M2310 3530 l0 -70 45 0 45 0 0 70 0 70 -45 0 -45 0 0 -70z"/>
<path d="M7560 4105 l0 -65 45 0 45 0 0 65 0 65 -45 0 -45 0 0 -65z"/>
<path d="M7680 4106 l0 -66 50 0 51 0 -3 63 -3 62 -47 3 -48 3 0 -65z"/>
<path d="M7810 4107 c0 -35 2 -66 4 -68 3 -3 23 -3 45 -1 l41 4 0 64 0 64 -45
0 -45 0 0 -63z"/>
<path d="M7950 4105 l0 -65 45 0 45 0 0 65 0 65 -45 0 -45 0 0 -65z"/>
<path d="M8070 4104 l0 -65 48 3 c26 2 46 6 45 11 -2 4 -3 32 -3 62 l0 55 -45
0 -45 0 0 -66z"/>
<path d="M7560 3900 l0 -70 45 0 45 0 0 70 0 70 -45 0 -45 0 0 -70z"/>
<path d="M7680 3900 l0 -71 48 3 47 3 0 65 0 65 -47 3 -48 3 0 -71z"/>
<path d="M7810 3900 l0 -70 45 0 45 0 0 70 0 70 -45 0 -45 0 0 -70z"/>
<path d="M7950 3900 l0 -70 45 0 45 0 0 70 0 70 -45 0 -45 0 0 -70z"/>
<path d="M8074 3956 c-3 -7 -4 -38 -2 -67 l3 -54 43 -3 42 -3 0 70 0 71 -40 0
c-25 0 -43 -5 -46 -14z"/>
<path d="M7560 3715 l0 -65 45 0 45 0 0 65 0 65 -45 0 -45 0 0 -65z"/>
<path d="M7680 3715 l0 -65 50 0 50 0 0 65 0 65 -50 0 -50 0 0 -65z"/>
<path d="M7810 3715 l0 -65 45 0 45 0 0 65 0 65 -45 0 -45 0 0 -65z"/>
<path d="M7950 3715 l0 -65 45 0 45 0 0 65 0 65 -45 0 -45 0 0 -65z"/>
<path d="M8070 3715 l0 -65 45 0 45 0 0 65 0 65 -45 0 -45 0 0 -65z"/>
<path d="M7560 3530 l0 -70 45 0 45 0 0 70 0 70 -45 0 -45 0 0 -70z"/>
<path d="M7680 3530 l0 -71 48 3 47 3 0 65 0 65 -47 3 -48 3 0 -71z"/>
<path d="M7810 3530 l0 -70 45 0 45 0 0 70 0 70 -45 0 -45 0 0 -70z"/>
<path d="M7950 3530 l0 -70 45 0 45 0 0 70 0 70 -45 0 -45 0 0 -70z"/>
<path d="M8070 3530 l0 -70 45 0 45 0 0 70 0 70 -45 0 -45 0 0 -70z"/>
<path d="M8913 4172 c-21 -3 -23 -9 -23 -68 l0 -64 45 0 45 0 0 65 c0 36 -3
65 -7 66 -5 0 -15 2 -23 3 -8 1 -25 0 -37 -2z"/>
<path d="M9024 4171 c-2 -2 -4 -33 -4 -68 l0 -63 45 0 46 0 -3 67 -3 68 -38 0
c-21 0 -41 -2 -43 -4z"/>
<path d="M9158 4172 c-15 -3 -18 -14 -18 -68 l0 -64 50 0 50 0 0 64 0 64 -32
4 c-18 2 -41 2 -50 0z"/>
<path d="M9313 4172 l-33 -3 0 -65 0 -65 48 3 47 3 3 61 c3 68 -1 72 -65 66z"/>
<path d="M9414 4171 c-2 -2 -4 -33 -4 -68 l0 -63 45 0 46 0 -3 67 -3 68 -38 0
c-21 0 -41 -2 -43 -4z"/>
<path d="M8890 3905 l0 -65 45 0 45 0 0 65 0 65 -45 0 -45 0 0 -65z"/>
<path d="M9020 3905 l0 -65 45 0 45 0 0 65 0 65 -45 0 -45 0 0 -65z"/>
<path d="M9140 3905 l0 -65 50 0 50 0 0 65 0 65 -50 0 -50 0 0 -65z"/>
<path d="M9280 3905 l0 -65 50 0 50 0 0 65 0 65 -50 0 -50 0 0 -65z"/>
<path d="M9410 3905 l0 -65 45 0 45 0 0 65 0 65 -45 0 -45 0 0 -65z"/>
<path d="M8892 3723 l3 -68 43 -3 42 -3 0 70 0 71 -45 0 -46 0 3 -67z"/>
<path d="M9020 3720 l0 -70 45 0 45 0 0 70 0 70 -45 0 -45 0 0 -70z"/>
<path d="M9142 3723 l3 -68 48 -3 47 -3 0 70 0 71 -50 0 -51 0 3 -67z"/>
<path d="M9280 3720 l0 -71 48 3 47 3 0 65 0 65 -47 3 -48 3 0 -71z"/>
<path d="M9410 3720 l0 -70 45 0 45 0 0 70 0 70 -45 0 -45 0 0 -70z"/>
<path d="M8890 3535 l0 -65 45 0 45 0 0 65 0 65 -45 0 -45 0 0 -65z"/>
<path d="M9020 3535 l0 -65 45 0 45 0 0 65 0 65 -45 0 -45 0 0 -65z"/>
<path d="M9140 3535 l0 -65 50 0 50 0 0 65 0 65 -50 0 -50 0 0 -65z"/>
<path d="M9280 3535 l0 -65 50 0 50 0 0 65 0 65 -50 0 -50 0 0 -65z"/>
<path d="M9410 3535 l0 -65 45 0 45 0 0 65 0 65 -45 0 -45 0 0 -65z"/>
<path d="M2657 4114 c-4 -4 -7 -36 -7 -71 l0 -63 45 0 46 0 -3 68 -3 67 -35 3
c-20 2 -39 0 -43 -4z"/>
<path d="M2650 3875 l0 -65 45 0 45 0 0 65 0 65 -45 0 -45 0 0 -65z"/>
<path d="M2650 3689 l0 -70 43 3 42 3 3 68 3 67 -46 0 -45 0 0 -71z"/>
<path d="M7217 4113 c-4 -3 -7 -35 -7 -70 l0 -63 45 0 45 0 0 70 0 70 -38 0
c-21 0 -42 -3 -45 -7z"/>
<path d="M7220 3875 l0 -65 45 0 45 0 0 65 0 65 -45 0 -45 0 0 -65z"/>
<path d="M7220 3689 l0 -70 43 3 42 3 3 68 3 67 -46 0 -45 0 0 -71z"/>
<path d="M4590 3880 l0 -60 378 2 377 3 3 58 3 57 -381 0 -380 0 0 -60z m740
0 l0 -51 -362 3 -363 3 -3 48 -3 47 365 0 366 0 0 -50z"/>
<path d="M1414 3198 c-15 -23 227 -434 349 -593 83 -109 210 -266 276 -344
120 -141 98 -134 185 -56 116 106 115 105 170 59 25 -21 46 -43 46 -49 -1 -15
-229 -124 -276 -131 -23 -3 -46 -9 -51 -13 -6 -3 -38 -78 -71 -166 -67 -177
-134 -351 -271 -710 -51 -132 -106 -275 -121 -317 l-29 -78 1139 0 c627 0
1140 -3 1140 -7 0 -5 -25 -51 -55 -103 -79 -140 -117 -212 -112 -216 2 -2 556
-3 1230 -2 l1227 3 -45 78 c-67 118 -125 228 -125 238 0 6 464 7 1141 3 l1140
-7 -7 27 c-8 35 -210 538 -461 1156 l-39 94 -60 11 c-70 13 -66 11 -172 93
l-83 65 32 33 c18 19 41 34 50 34 10 0 56 -36 103 -81 47 -44 89 -78 95 -75
10 7 167 187 197 227 10 14 53 68 95 120 136 168 282 391 390 595 39 73 56
114 47 115 -92 7 -221 2 -230 -9 -6 -7 -38 -61 -70 -120 -138 -247 -398 -602
-442 -602 -5 0 -48 33 -95 73 -47 40 -92 77 -99 81 -11 6 -157 -114 -295 -244
-20 -19 -54 -40 -75 -47 -39 -12 -537 -18 -579 -7 -21 6 -17 10 35 47 263 186
534 463 723 740 l60 87 -113 0 -113 -1 -75 -101 c-94 -128 -342 -377 -480
-485 -113 -87 -283 -198 -394 -257 l-70 -36 -530 0 -530 1 -78 -78 -78 -78
-78 78 -79 78 -557 -1 -557 -1 -59 30 c-325 166 -679 466 -903 769 l-62 82
-122 0 c-68 0 -123 -2 -123 -5 0 -11 97 -150 171 -245 142 -183 405 -436 582
-560 42 -29 77 -57 77 -61 0 -4 -112 -8 -250 -9 -203 0 -256 2 -286 15 -20 8
-73 48 -118 88 -45 41 -116 104 -159 141 l-78 68 -71 -59 c-39 -32 -84 -69
-100 -81 -16 -13 -35 -22 -42 -19 -55 21 -396 509 -483 691 -17 36 -17 36 -87
38 -137 3 -158 3 -162 -4z m3456 -983 c41 -41 82 -75 91 -75 8 0 35 21 59 46
25 25 61 59 82 75 l36 29 1012 1 c557 0 1014 -2 1016 -4 3 -3 267 -716 328
-884 l26 -73 -1134 0 c-623 0 -1135 -3 -1139 -6 -3 -4 25 -69 64 -145 l69
-139 -380 0 c-209 0 -380 3 -380 6 0 4 29 64 65 135 36 70 65 133 65 140 0 9
-260 10 -1161 5 -1127 -8 -1162 -7 -1155 11 62 159 346 933 346 941 0 15 213
18 1224 15 l790 -2 76 -76z m-2126 48 c-6 -24 -91 -254 -314 -854 -22 -59 -40
-110 -40 -114 0 -4 522 -3 1160 1 638 4 1160 4 1160 1 0 -3 -31 -65 -70 -138
-38 -73 -70 -137 -70 -141 0 -4 191 -8 425 -8 234 0 425 3 425 6 0 4 -26 59
-59 123 -32 64 -61 126 -65 139 l-7 22 1135 0 c625 0 1136 2 1136 4 0 5 -336
922 -355 969 -6 14 -1 17 34 17 28 0 64 -13 122 -43 78 -41 84 -47 105 -98 34
-80 394 -1032 394 -1041 0 -4 -513 -8 -1140 -8 -627 0 -1140 -2 -1140 -5 0 -3
20 -64 45 -136 25 -72 45 -133 45 -135 0 -2 -311 -4 -690 -4 l-690 0 34 68
c19 37 50 96 70 130 20 35 34 67 31 71 -2 4 -525 11 -1161 14 -636 4 -1159 9
-1161 11 -2 2 26 89 62 192 37 104 109 311 161 459 122 346 144 404 158 416 6
5 45 31 86 58 65 43 82 50 128 50 52 1 52 1 46 -26z m-309 -110 c-12 -27 -61
-163 -110 -303 -39 -112 -213 -609 -252 -718 -8 -24 -13 -45 -11 -47 2 -2 523
-7 1158 -11 635 -4 1157 -8 1159 -10 1 -1 -29 -64 -69 -138 l-71 -136 735 0
c405 0 736 4 736 8 0 4 -20 65 -45 135 -25 71 -45 130 -45 132 0 3 513 5 1140
5 895 0 1140 3 1140 12 0 7 -83 231 -184 498 -102 267 -193 509 -204 538 -11
28 -17 52 -14 52 4 0 36 -22 71 -48 58 -43 66 -54 96 -127 17 -44 85 -210 150
-370 204 -503 275 -682 275 -690 0 -4 -37 -5 -82 -1 -100 7 -2217 10 -2225 3
-2 -3 20 -54 51 -114 60 -118 86 -178 86 -199 0 -12 -153 -14 -970 -14 -533 0
-970 2 -970 5 0 3 36 74 80 159 44 84 80 159 80 165 0 8 -308 11 -1150 11
-641 0 -1150 4 -1150 9 0 4 61 168 135 362 263 686 285 741 304 763 15 17 136
84 155 86 4 0 5 -8 1 -17z"/>
<path d="M3540 1765 l0 -236 113 3 112 3 3 98 3 97 194 0 195 0 0 -100 0 -100
115 0 115 0 0 235 0 235 -115 0 -114 0 -3 -92 -3 -93 -192 -3 -193 -2 -1 80
c-1 44 -2 86 -3 93 -1 8 -33 13 -113 15 l-113 3 0 -236z"/>
<path d="M4866 1984 c-3 -9 -6 -114 -6 -235 l0 -219 115 0 115 0 0 235 0 235
-109 0 c-90 0 -110 -3 -115 -16z"/>
<path d="M5480 1960 l0 -40 155 0 155 0 0 -195 0 -195 115 0 115 0 2 193 3
192 153 3 152 3 0 39 0 40 -425 0 -425 0 0 -40z"/>
<path d="M4230 2931 c-17 -19 -40 -31 -68 -36 -62 -10 -55 -33 11 -37 l52 -3
3 -117 3 -118 29 0 30 0 0 170 c0 155 -2 170 -17 170 -10 -1 -29 -14 -43 -29z"/>
<path d="M4643 2950 c-70 -22 -106 -113 -67 -169 34 -48 144 -67 204 -36 34
18 35 16 16 -28 -20 -49 -50 -70 -98 -70 -33 0 -46 6 -63 27 -20 25 -75 38
-75 17 0 -20 43 -60 76 -71 48 -16 129 -8 162 17 52 39 66 69 70 146 3 79 -13
120 -62 152 -30 20 -120 28 -163 15z m103 -40 c23 0 54 -38 54 -65 0 -38 -42
-75 -84 -75 -76 0 -111 38 -90 99 10 27 66 54 92 45 8 -2 20 -4 28 -4z"/>
<path d="M5104 2941 c-27 -12 -46 -30 -57 -54 -24 -50 -22 -59 16 -55 24 2 33
8 35 24 5 36 38 57 86 57 54 0 96 -25 96 -57 0 -31 -15 -42 -123 -96 -88 -43
-118 -70 -132 -117 l-6 -23 160 0 c154 0 161 1 161 20 0 19 -7 20 -127 20
-123 0 -126 0 -109 19 9 10 52 34 94 52 112 47 142 72 142 115 0 50 -15 73
-63 95 -53 24 -120 24 -173 0z"/>
<path d="M5590 2943 c-68 -35 -100 -118 -80 -210 13 -58 37 -88 84 -108 80
-34 179 -5 211 61 41 84 20 197 -47 247 -38 29 -123 34 -168 10z m118 -38 c37
-11 55 -59 50 -136 -3 -55 -8 -73 -28 -94 -20 -22 -32 -25 -69 -23 -65 4 -86
37 -86 133 0 77 14 107 60 125 20 8 28 8 73 -5z"/>
</g>
</svg>
