<?xml version="1.0" encoding="UTF-8" standalone="no"?>
<svg
   xmlns:dc="http://purl.org/dc/elements/1.1/"
   xmlns:cc="http://creativecommons.org/ns#"
   xmlns:rdf="http://www.w3.org/1999/02/22-rdf-syntax-ns#"
   xmlns:svg="http://www.w3.org/2000/svg"
   xmlns="http://www.w3.org/2000/svg"
   viewBox="0 0 664.1333 256.82666"
   height="256.82666"
   width="664.1333"
   xml:space="preserve"
   id="svg2"
   version="1.1"><metadata
     id="metadata8"><rdf:RDF><cc:Work
         rdf:about=""><dc:format>image/svg+xml</dc:format><dc:type
           rdf:resource="http://purl.org/dc/dcmitype/StillImage" /></cc:Work></rdf:RDF></metadata><defs
     id="defs6" /><g
     transform="matrix(1.3333333,0,0,-1.3333333,0,256.82667)"
     id="g10"><g
       transform="scale(0.1)"
       id="g12"><path
         id="path14"
         style="fill:#3f464c;fill-opacity:1;fill-rule:nonzero;stroke:none"
         d="m 2111.28,1651.77 h -158.86 v 93.35 h 425.33 v -93.35 h -158.86 v -466.89 h -107.61 v 466.89" /><path
         id="path16"
         style="fill:#3f464c;fill-opacity:1;fill-rule:nonzero;stroke:none"
         d="m 2569.05,1838.52 c 40.14,24.4 79.45,48.79 113.62,74.85 l 40.13,-62.24 c -38.42,-27.75 -70.03,-46.25 -116.15,-69.83 z m -118.7,-93.4 h 348.48 v -93.35 h -240.87 v -135.45 h 222.07 v -93.39 h -222.07 v -144.66 h 240.87 v -93.39 h -348.48 v 560.24" /><path
         id="path18"
         style="fill:#3f464c;fill-opacity:1;fill-rule:nonzero;stroke:none"
         d="m 2884.22,1591.2 c 0,102.64 60.64,162.36 202.42,162.36 52.97,0 107.62,-6.74 154.6,-18.51 l -11.95,-91.7 c -46.13,8.42 -99.95,14.31 -139.23,14.31 -74.31,0 -98.22,-25.25 -98.22,-84.97 v -215.36 c 0,-59.72 23.91,-84.98 98.22,-84.98 39.28,0 93.1,5.92 139.23,14.32 l 11.95,-91.69 c -46.98,-11.78 -101.63,-18.52 -154.6,-18.52 -141.78,0 -202.42,59.74 -202.42,162.36 v 252.38" /><path
         id="path20"
         style="fill:#3f464c;fill-opacity:1;fill-rule:nonzero;stroke:none"
         d="m 3435.97,1609.7 v -424.82 h -105.06 v 560.24 h 143.48 l 216.09,-425.64 v 425.64 h 105.07 v -560.24 h -143.5 l -216.08,424.82" /><path
         id="path22"
         style="fill:#3f464c;fill-opacity:1;fill-rule:nonzero;stroke:none"
         d="m 4022.71,1184.88 h -107.63 v 560.24 h 107.63 v -560.24" /><path
         id="path24"
         style="fill:#3f464c;fill-opacity:1;fill-rule:nonzero;stroke:none"
         d="m 4129.48,1591.2 c 0,102.64 60.63,162.36 202.42,162.36 52.95,0 107.61,-6.74 154.58,-18.51 l -11.95,-91.7 c -46.12,8.42 -99.92,14.31 -139.23,14.31 -74.28,0 -98.22,-25.25 -98.22,-84.97 v -215.36 c 0,-59.72 23.94,-84.98 98.22,-84.98 39.31,0 93.11,5.92 139.23,14.32 l 11.95,-91.69 c -46.97,-11.78 -101.63,-18.52 -154.58,-18.52 -141.79,0 -202.42,59.74 -202.42,162.36 v 252.38" /><path
         id="path26"
         style="fill:#3f464c;fill-opacity:1;fill-rule:nonzero;stroke:none"
         d="m 4658.16,1354.81 c 0,-53.01 27.33,-84.97 107.6,-84.97 80.3,0 107.63,31.96 107.63,84.97 v 220.4 c 0,53 -27.33,84.97 -107.63,84.97 -80.27,0 -107.6,-31.97 -107.6,-84.97 z m 322.86,-5.88 c 0,-93.38 -54.66,-172.47 -215.26,-172.47 -160.55,0 -215.22,79.09 -215.22,172.47 v 232.17 c 0,93.38 54.67,172.46 215.22,172.46 160.6,0 215.26,-79.08 215.26,-172.46 v -232.17" /><path
         id="path28"
         style="fill:#3f464c;fill-opacity:1;fill-rule:nonzero;stroke:none"
         d="m 2159.26,522.172 h 256.23 V 477.59 h -306.61 v 560.27 h 50.38 V 522.172" /><path
         id="path30"
         style="fill:#3f464c;fill-opacity:1;fill-rule:nonzero;stroke:none"
         d="m 2580.32,477.59 h -50.38 v 560.27 h 50.38 V 477.59" /><path
         id="path32"
         style="fill:#3f464c;fill-opacity:1;fill-rule:nonzero;stroke:none"
         d="m 2880.96,469.18 c -49.52,0 -111.88,8.41 -160.57,26.89 l 9.39,40.41 c 51.26,-15.14 103.35,-22.699 152.89,-22.699 97.36,0 123.85,28.578 123.85,100.09 0,86.649 -0.85,95.879 -127.27,124.508 -137.5,31.109 -152.87,55.512 -152.87,168.23 0,91.707 34.15,139.641 176.79,139.641 49.54,0 108.47,-8.39 146.92,-19.33 l -5.99,-42.068 c -41.85,9.253 -94.82,16.828 -139.24,16.828 -112.73,0 -128.1,-26.926 -128.1,-96.739 0,-90.851 2.56,-95.07 122.14,-124.5 149.48,-37.011 158,-58.043 158,-164.062 0,-91.668 -31.6,-147.199 -175.94,-147.199" /><path
         id="path34"
         style="fill:#3f464c;fill-opacity:1;fill-rule:nonzero;stroke:none"
         d="m 3495.91,663.5 c 0,47.109 -28.19,79.078 -93.95,79.078 H 3243.11 V 521.34 h 173.37 c 53.8,0 79.43,26.07 79.43,70.648 z m -17.95,270.883 c 0,38.707 -22.2,59.722 -70.89,59.722 H 3243.11 V 786.328 h 146.88 c 62.35,0 87.97,31.953 87.97,76.563 z M 3192.7,477.59 v 560.27 h 213.52 c 76.88,0 122.15,-36.18 122.15,-110.208 V 860.34 c 0,-44.578 -18.8,-74.012 -64.9,-90.852 44.41,-5.886 82.82,-42.078 82.82,-104.297 v -73.203 c 0,-77.386 -57.21,-114.398 -130.66,-114.398 H 3192.7" /><path
         id="path36"
         style="fill:#3f464c;fill-opacity:1;fill-rule:nonzero;stroke:none"
         d="m 3999.8,637.43 v 240.582 c 0,79.929 -39.26,123.668 -148.6,123.668 -109.33,0 -148.62,-43.739 -148.62,-123.668 V 637.43 c 0,-79.918 39.29,-123.649 148.62,-123.649 109.34,0 148.6,43.731 148.6,123.649 z M 3851.2,469.18 c -146.05,0 -199.02,70.679 -199.02,166.558 v 243.961 c 0,95.891 52.97,166.551 199.02,166.551 146.06,0 199.01,-70.66 199.01,-166.551 V 635.738 c 0,-95.879 -52.95,-166.558 -199.01,-166.558" /><path
         id="path38"
         style="fill:#3f464c;fill-opacity:1;fill-rule:nonzero;stroke:none"
         d="m 4248.37,667.699 h 234.03 l -117.04,341.541 z m 249.38,-42.89 H 4233 L 4180.03,477.59 h -49.55 l 198.16,560.27 h 74.32 L 4601.1,477.59 h -49.53 l -53.82,147.219" /><path
         id="path40"
         style="fill:#05a1e6;fill-opacity:1;fill-rule:evenodd;stroke:none"
         d="M 794.797,0 C 794.797,0 0,389.898 0,1117.8 c 0,491.27 0,808.36 0,808.36 h 1592.55 c 0,0 0,-317.09 0,-808.36 C 1592.55,389.898 794.797,0 794.797,0" /><path
         id="path42"
         style="fill:#ffffff;fill-opacity:1;fill-rule:nonzero;stroke:none"
         d="m 1220.21,1317.98 h -66.33 V 819.449 h -143.5 l -0.02,498.531 h -66.13 v 99.96 h 275.98 v -99.96" /><path
         id="path44"
         style="fill:#ffffff;fill-opacity:1;fill-rule:nonzero;stroke:none"
         d="M 579.563,819.781 H 436.117 l 0.168,598.159 h 143.09 l 0.188,-598.159" /><path
         id="path46"
         style="fill:#ffffff;fill-opacity:1;fill-rule:nonzero;stroke:none"
         d="m 938.137,1756.88 c -118.703,0 -214.899,-61.52 -214.899,-180.23 l -0.039,-916.209 c 0,-100.55 0,-150.41 -71.429,-150.41 -66.411,0 -72.25,49.649 -72.25,122.918 h -0.016 c 0,39.551 -32.109,71.641 -71.688,71.641 -39.531,0 -71.632,-32.09 -71.632,-71.641 h -0.129 c 0,-100.871 97.05,-152.758 215.715,-152.758 118.679,0 214.894,61.547 214.894,180.25 l 0.066,916.209 c 0,100.55 -0.027,150.39 71.407,150.39 66.423,0 72.243,-49.7 72.243,-122.87 h 0.08 c 0,-39.6 32.07,-71.64 71.6,-71.64 39.6,0 71.66,32.04 71.66,71.64 h 0.15 c 0,100.87 -97.05,152.71 -215.733,152.71" /></g></g></svg>